<mxfile host="app.diagrams.net" modified="2022-07-07T06:55:26.636Z" agent="5.0 (Windows NT 10.0; Win64; x64) AppleWebKit/537.36 (KHTML, like Gecko) Chrome/103.0.0.0 Safari/537.36" etag="UzoYBNa_-ico-FvoNGhj" version="20.0.4" type="github">
  <diagram id="CEniq_TR2ihdHZLMvwL3" name="Page-1">
    <mxGraphModel dx="1422" dy="1589" grid="1" gridSize="10" guides="1" tooltips="1" connect="1" arrows="1" fold="1" page="1" pageScale="1" pageWidth="1169" pageHeight="827" math="0" shadow="0">
      <root>
        <mxCell id="0" />
        <mxCell id="1" parent="0" />
        <mxCell id="vtwA8sPut-S2K1wKXcwo-1" value="VPC" style="sketch=0;outlineConnect=0;gradientColor=none;html=1;whiteSpace=wrap;fontSize=12;fontStyle=0;shape=mxgraph.aws4.group;grIcon=mxgraph.aws4.group_vpc;strokeColor=#879196;fillColor=none;verticalAlign=top;align=left;spacingLeft=30;fontColor=#879196;dashed=0;" parent="1" vertex="1">
          <mxGeometry x="80" y="130" width="810" height="500" as="geometry" />
        </mxCell>
        <mxCell id="vtwA8sPut-S2K1wKXcwo-6" value="" style="outlineConnect=0;dashed=0;verticalLabelPosition=bottom;verticalAlign=top;align=center;html=1;shape=mxgraph.aws3.classic_load_balancer;fillColor=#F58534;gradientColor=none;" parent="1" vertex="1">
          <mxGeometry x="180" y="360" width="50" height="56" as="geometry" />
        </mxCell>
        <mxCell id="vtwA8sPut-S2K1wKXcwo-11" value="" style="rounded=0;whiteSpace=wrap;html=1;dashed=1;strokeColor=#00CCCC;strokeWidth=1;fillColor=none;gradientColor=#ffffff;" parent="1" vertex="1">
          <mxGeometry x="220" y="400" width="610" height="200" as="geometry" />
        </mxCell>
        <mxCell id="vtwA8sPut-S2K1wKXcwo-12" value="" style="rounded=0;whiteSpace=wrap;html=1;dashed=1;strokeColor=#00CCCC;strokeWidth=1;fillColor=none;gradientColor=#ffffff;" parent="1" vertex="1">
          <mxGeometry x="220" y="180" width="610" height="200" as="geometry" />
        </mxCell>
        <mxCell id="vtwA8sPut-S2K1wKXcwo-13" value="&lt;font color=&quot;#009999&quot;&gt;Avialable Zone&lt;/font&gt;" style="text;html=1;resizable=0;autosize=1;align=center;verticalAlign=middle;points=[];fillColor=none;strokeColor=none;rounded=0;dashed=1;" parent="1" vertex="1">
          <mxGeometry x="430" y="183" width="100" height="30" as="geometry" />
        </mxCell>
        <mxCell id="vtwA8sPut-S2K1wKXcwo-14" value="&lt;font color=&quot;#009999&quot;&gt;Avialable Zone&lt;/font&gt;" style="text;html=1;resizable=0;autosize=1;align=center;verticalAlign=middle;points=[];fillColor=none;strokeColor=none;rounded=0;dashed=1;" parent="1" vertex="1">
          <mxGeometry x="430" y="406" width="100" height="30" as="geometry" />
        </mxCell>
        <mxCell id="vtwA8sPut-S2K1wKXcwo-16" value="Public subnet(2b)" style="points=[[0,0],[0.25,0],[0.5,0],[0.75,0],[1,0],[1,0.25],[1,0.5],[1,0.75],[1,1],[0.75,1],[0.5,1],[0.25,1],[0,1],[0,0.75],[0,0.5],[0,0.25]];outlineConnect=0;gradientColor=none;html=1;whiteSpace=wrap;fontSize=12;fontStyle=0;container=1;pointerEvents=0;collapsible=0;recursiveResize=0;shape=mxgraph.aws4.group;grIcon=mxgraph.aws4.group_security_group;grStroke=0;strokeColor=#248814;fillColor=#E9F3E6;verticalAlign=top;align=left;spacingLeft=30;fontColor=#248814;dashed=0;" parent="1" vertex="1">
          <mxGeometry x="245" y="440" width="265" height="130" as="geometry" />
        </mxCell>
        <mxCell id="VPFrxmpOL_sy5obyjlSU-2" value="&lt;font style=&quot;font-size: 14px;&quot;&gt;&lt;br&gt;Jump Server&lt;/font&gt;" style="points=[[0,0],[0.25,0],[0.5,0],[0.75,0],[1,0],[1,0.25],[1,0.5],[1,0.75],[1,1],[0.75,1],[0.5,1],[0.25,1],[0,1],[0,0.75],[0,0.5],[0,0.25]];outlineConnect=0;gradientColor=none;html=1;whiteSpace=wrap;fontSize=12;fontStyle=0;container=1;pointerEvents=0;collapsible=0;recursiveResize=0;shape=mxgraph.aws4.group;grIcon=mxgraph.aws4.group_ec2_instance_contents;strokeColor=#D86613;fillColor=none;verticalAlign=top;align=left;spacingLeft=30;fontColor=#D86613;dashed=0;" parent="vtwA8sPut-S2K1wKXcwo-16" vertex="1">
          <mxGeometry x="117" y="45" width="130" height="60" as="geometry" />
        </mxCell>
        <mxCell id="VPFrxmpOL_sy5obyjlSU-1" value="" style="outlineConnect=0;dashed=0;verticalLabelPosition=bottom;verticalAlign=top;align=center;html=1;shape=mxgraph.aws3.internet_gateway;fillColor=#F58534;gradientColor=none;fontColor=#009999;strokeColor=#00CCCC;strokeWidth=1;" parent="1" vertex="1">
          <mxGeometry x="260" y="480" width="60" height="60" as="geometry" />
        </mxCell>
        <mxCell id="VPFrxmpOL_sy5obyjlSU-3" value="Private subnet(2b)" style="points=[[0,0],[0.25,0],[0.5,0],[0.75,0],[1,0],[1,0.25],[1,0.5],[1,0.75],[1,1],[0.75,1],[0.5,1],[0.25,1],[0,1],[0,0.75],[0,0.5],[0,0.25]];outlineConnect=0;gradientColor=none;html=1;whiteSpace=wrap;fontSize=12;fontStyle=0;container=1;pointerEvents=0;collapsible=0;recursiveResize=0;shape=mxgraph.aws4.group;grIcon=mxgraph.aws4.group_security_group;grStroke=0;strokeColor=#147EBA;fillColor=#E6F2F8;verticalAlign=top;align=left;spacingLeft=30;fontColor=#147EBA;dashed=0;" parent="1" vertex="1">
          <mxGeometry x="529" y="440" width="290" height="130" as="geometry" />
        </mxCell>
        <mxCell id="VPFrxmpOL_sy5obyjlSU-8" value="AWS Cloud" style="points=[[0,0],[0.25,0],[0.5,0],[0.75,0],[1,0],[1,0.25],[1,0.5],[1,0.75],[1,1],[0.75,1],[0.5,1],[0.25,1],[0,1],[0,0.75],[0,0.5],[0,0.25]];outlineConnect=0;gradientColor=none;html=1;whiteSpace=wrap;fontSize=12;fontStyle=0;container=1;pointerEvents=0;collapsible=0;recursiveResize=0;shape=mxgraph.aws4.group;grIcon=mxgraph.aws4.group_aws_cloud_alt;strokeColor=#232F3E;fillColor=none;verticalAlign=top;align=left;spacingLeft=30;fontColor=#232F3E;dashed=0;" parent="1" vertex="1">
          <mxGeometry x="70" y="-30" width="1030" height="690" as="geometry" />
        </mxCell>
        <mxCell id="VPFrxmpOL_sy5obyjlSU-9" value="" style="sketch=0;points=[[0,0,0],[0.25,0,0],[0.5,0,0],[0.75,0,0],[1,0,0],[0,1,0],[0.25,1,0],[0.5,1,0],[0.75,1,0],[1,1,0],[0,0.25,0],[0,0.5,0],[0,0.75,0],[1,0.25,0],[1,0.5,0],[1,0.75,0]];outlineConnect=0;fontColor=#232F3E;gradientColor=#60A337;gradientDirection=north;fillColor=#277116;strokeColor=#ffffff;dashed=0;verticalLabelPosition=bottom;verticalAlign=top;align=center;html=1;fontSize=12;fontStyle=0;aspect=fixed;shape=mxgraph.aws4.resourceIcon;resIcon=mxgraph.aws4.s3;" parent="VPFrxmpOL_sy5obyjlSU-8" vertex="1">
          <mxGeometry x="860" y="40" width="78" height="78" as="geometry" />
        </mxCell>
        <mxCell id="vtwA8sPut-S2K1wKXcwo-15" value="Public subnet(2a)" style="points=[[0,0],[0.25,0],[0.5,0],[0.75,0],[1,0],[1,0.25],[1,0.5],[1,0.75],[1,1],[0.75,1],[0.5,1],[0.25,1],[0,1],[0,0.75],[0,0.5],[0,0.25]];outlineConnect=0;gradientColor=none;html=1;whiteSpace=wrap;fontSize=12;fontStyle=0;container=1;pointerEvents=0;collapsible=0;recursiveResize=0;shape=mxgraph.aws4.group;grIcon=mxgraph.aws4.group_security_group;grStroke=0;strokeColor=#248814;fillColor=#E9F3E6;verticalAlign=top;align=left;spacingLeft=30;fontColor=#248814;dashed=0;" parent="VPFrxmpOL_sy5obyjlSU-8" vertex="1">
          <mxGeometry x="170" y="250" width="270" height="136" as="geometry" />
        </mxCell>
        <mxCell id="VPFrxmpOL_sy5obyjlSU-26" value="&lt;font color=&quot;#000000&quot; style=&quot;font-size: 12px;&quot;&gt;Internet Gateway&lt;/font&gt;" style="text;html=1;resizable=0;autosize=1;align=center;verticalAlign=middle;points=[];fillColor=none;strokeColor=none;rounded=0;dashed=1;fontSize=15;fontColor=#009999;" parent="vtwA8sPut-S2K1wKXcwo-15" vertex="1">
          <mxGeometry x="-5" y="106" width="110" height="30" as="geometry" />
        </mxCell>
        <mxCell id="VPFrxmpOL_sy5obyjlSU-23" value="Private subnet(2a)" style="points=[[0,0],[0.25,0],[0.5,0],[0.75,0],[1,0],[1,0.25],[1,0.5],[1,0.75],[1,1],[0.75,1],[0.5,1],[0.25,1],[0,1],[0,0.75],[0,0.5],[0,0.25]];outlineConnect=0;gradientColor=none;html=1;whiteSpace=wrap;fontSize=12;fontStyle=0;container=1;pointerEvents=0;collapsible=0;recursiveResize=0;shape=mxgraph.aws4.group;grIcon=mxgraph.aws4.group_security_group;grStroke=0;strokeColor=#147EBA;fillColor=#E6F2F8;verticalAlign=top;align=left;spacingLeft=30;fontColor=#147EBA;dashed=0;" parent="VPFrxmpOL_sy5obyjlSU-8" vertex="1">
          <mxGeometry x="460" y="250" width="290" height="135" as="geometry" />
        </mxCell>
        <mxCell id="VPFrxmpOL_sy5obyjlSU-25" value="&lt;br&gt;&lt;font style=&quot;font-size: 15px;&quot;&gt;Uranos main Server&lt;/font&gt;" style="points=[[0,0],[0.25,0],[0.5,0],[0.75,0],[1,0],[1,0.25],[1,0.5],[1,0.75],[1,1],[0.75,1],[0.5,1],[0.25,1],[0,1],[0,0.75],[0,0.5],[0,0.25]];outlineConnect=0;gradientColor=none;html=1;whiteSpace=wrap;fontSize=12;fontStyle=0;container=1;pointerEvents=0;collapsible=0;recursiveResize=0;shape=mxgraph.aws4.group;grIcon=mxgraph.aws4.group_ec2_instance_contents;strokeColor=#D86613;fillColor=none;verticalAlign=top;align=left;spacingLeft=30;fontColor=#D86613;dashed=0;" parent="VPFrxmpOL_sy5obyjlSU-23" vertex="1">
          <mxGeometry x="115" y="38" width="170" height="60" as="geometry" />
        </mxCell>
        <mxCell id="VPFrxmpOL_sy5obyjlSU-24" value="" style="sketch=0;outlineConnect=0;fontColor=#232F3E;gradientColor=none;fillColor=#4D27AA;strokeColor=none;dashed=0;verticalLabelPosition=bottom;verticalAlign=top;align=center;html=1;fontSize=12;fontStyle=0;aspect=fixed;pointerEvents=1;shape=mxgraph.aws4.nat_gateway;" parent="VPFrxmpOL_sy5obyjlSU-23" vertex="1">
          <mxGeometry x="19" y="36" width="64" height="64" as="geometry" />
        </mxCell>
        <mxCell id="s74JvbKv9A3GNjfIYB-O-2" value="NAT gateway" style="text;html=1;resizable=0;autosize=1;align=center;verticalAlign=middle;points=[];fillColor=none;strokeColor=none;rounded=0;" vertex="1" parent="VPFrxmpOL_sy5obyjlSU-23">
          <mxGeometry x="6" y="105" width="90" height="30" as="geometry" />
        </mxCell>
        <mxCell id="VPFrxmpOL_sy5obyjlSU-29" value="&lt;font color=&quot;#000000&quot; style=&quot;font-size: 12px;&quot;&gt;Internet Gateway&lt;/font&gt;" style="text;html=1;resizable=0;autosize=1;align=center;verticalAlign=middle;points=[];fillColor=none;strokeColor=none;rounded=0;dashed=1;fontSize=15;fontColor=#009999;" parent="VPFrxmpOL_sy5obyjlSU-8" vertex="1">
          <mxGeometry x="170" y="570" width="110" height="30" as="geometry" />
        </mxCell>
        <mxCell id="s74JvbKv9A3GNjfIYB-O-1" value="WAF" style="text;html=1;resizable=0;autosize=1;align=center;verticalAlign=middle;points=[];fillColor=none;strokeColor=none;rounded=0;" vertex="1" parent="VPFrxmpOL_sy5obyjlSU-8">
          <mxGeometry x="30" y="210" width="50" height="30" as="geometry" />
        </mxCell>
        <mxCell id="s74JvbKv9A3GNjfIYB-O-3" value="Load Balancer" style="text;html=1;resizable=0;autosize=1;align=center;verticalAlign=middle;points=[];fillColor=none;strokeColor=none;rounded=0;" vertex="1" parent="VPFrxmpOL_sy5obyjlSU-8">
          <mxGeometry x="80" y="445" width="100" height="30" as="geometry" />
        </mxCell>
        <mxCell id="vtwA8sPut-S2K1wKXcwo-4" value="" style="outlineConnect=0;dashed=0;verticalLabelPosition=bottom;verticalAlign=top;align=center;html=1;shape=mxgraph.aws3.waf;fillColor=#759C3E;gradientColor=none;" parent="VPFrxmpOL_sy5obyjlSU-8" vertex="1">
          <mxGeometry x="70" y="170" width="50" height="50" as="geometry" />
        </mxCell>
        <mxCell id="s74JvbKv9A3GNjfIYB-O-6" value="S3 Storage&lt;br&gt;for Module" style="text;html=1;resizable=0;autosize=1;align=center;verticalAlign=middle;points=[];fillColor=none;strokeColor=none;rounded=0;" vertex="1" parent="VPFrxmpOL_sy5obyjlSU-8">
          <mxGeometry x="859" y="120" width="80" height="40" as="geometry" />
        </mxCell>
        <mxCell id="s74JvbKv9A3GNjfIYB-O-7" value="" style="endArrow=classic;html=1;rounded=0;exitX=0;exitY=0.5;exitDx=0;exitDy=0;exitPerimeter=0;dashed=1;dashPattern=1 1;strokeWidth=3;" edge="1" parent="VPFrxmpOL_sy5obyjlSU-8" source="VPFrxmpOL_sy5obyjlSU-9" target="VPFrxmpOL_sy5obyjlSU-25">
          <mxGeometry width="50" height="50" relative="1" as="geometry">
            <mxPoint x="630" y="130" as="sourcePoint" />
            <mxPoint x="680" y="80" as="targetPoint" />
            <Array as="points">
              <mxPoint x="660" y="79" />
            </Array>
          </mxGeometry>
        </mxCell>
        <mxCell id="s74JvbKv9A3GNjfIYB-O-8" value="Connect S3 to EC2" style="text;html=1;resizable=0;autosize=1;align=center;verticalAlign=middle;points=[];fillColor=none;strokeColor=none;rounded=0;" vertex="1" parent="VPFrxmpOL_sy5obyjlSU-8">
          <mxGeometry x="680" y="40" width="130" height="30" as="geometry" />
        </mxCell>
        <mxCell id="VPFrxmpOL_sy5obyjlSU-12" value="" style="image;html=1;image=img/lib/clip_art/networking/Firewall_02_128x128.png;dashed=1;fontSize=14;fontColor=#009999;strokeColor=#FF0000;strokeWidth=2;fillColor=none;gradientColor=none;" parent="1" vertex="1">
          <mxGeometry x="1190" y="210" width="90" height="110" as="geometry" />
        </mxCell>
        <mxCell id="VPFrxmpOL_sy5obyjlSU-20" value="" style="endArrow=classic;html=1;rounded=0;fontSize=14;fontColor=#009999;strokeColor=#FF0000;" parent="1" target="VPFrxmpOL_sy5obyjlSU-9" edge="1">
          <mxGeometry width="50" height="50" relative="1" as="geometry">
            <mxPoint x="1230" y="220" as="sourcePoint" />
            <mxPoint x="1010" y="40" as="targetPoint" />
            <Array as="points">
              <mxPoint x="1230" y="50" />
            </Array>
          </mxGeometry>
        </mxCell>
        <mxCell id="VPFrxmpOL_sy5obyjlSU-21" value="" style="endArrow=classic;html=1;rounded=0;fontSize=14;fontColor=#009999;strokeColor=#FF0000;" parent="1" edge="1">
          <mxGeometry width="50" height="50" relative="1" as="geometry">
            <mxPoint x="1190" y="295" as="sourcePoint" />
            <mxPoint x="810" y="290" as="targetPoint" />
          </mxGeometry>
        </mxCell>
        <mxCell id="VPFrxmpOL_sy5obyjlSU-22" value="" style="outlineConnect=0;dashed=0;verticalLabelPosition=bottom;verticalAlign=top;align=center;html=1;shape=mxgraph.aws3.internet_gateway;fillColor=#F58534;gradientColor=none;fontSize=14;fontColor=#009999;strokeColor=#FF0000;strokeWidth=2;" parent="1" vertex="1">
          <mxGeometry x="260" y="266" width="60" height="60" as="geometry" />
        </mxCell>
        <mxCell id="VPFrxmpOL_sy5obyjlSU-35" value="" style="image;html=1;image=img/lib/clip_art/computers/Server_128x128.png;dashed=1;fontSize=12;fontColor=#000000;strokeColor=#FF0000;strokeWidth=2;fillColor=none;gradientColor=none;" parent="1" vertex="1">
          <mxGeometry x="1410" y="220" width="80" height="100" as="geometry" />
        </mxCell>
        <mxCell id="VPFrxmpOL_sy5obyjlSU-36" value="&lt;b&gt;&lt;font style=&quot;font-size: 16px;&quot;&gt;Acer System Server&lt;/font&gt;&lt;/b&gt;" style="text;html=1;resizable=0;autosize=1;align=center;verticalAlign=middle;points=[];fillColor=none;strokeColor=none;rounded=0;dashed=1;fontSize=12;fontColor=#000000;" parent="1" vertex="1">
          <mxGeometry x="1365" y="315" width="170" height="30" as="geometry" />
        </mxCell>
        <mxCell id="VPFrxmpOL_sy5obyjlSU-38" value="" style="endArrow=classic;html=1;rounded=0;fontSize=16;fontColor=#FF0000;strokeColor=#FF0000;" parent="1" source="VPFrxmpOL_sy5obyjlSU-35" edge="1">
          <mxGeometry width="50" height="50" relative="1" as="geometry">
            <mxPoint x="1203" y="340" as="sourcePoint" />
            <mxPoint x="1280" y="270" as="targetPoint" />
          </mxGeometry>
        </mxCell>
        <mxCell id="VPFrxmpOL_sy5obyjlSU-39" value="&lt;font color=&quot;#000000&quot;&gt;Module&lt;/font&gt;" style="text;html=1;resizable=0;autosize=1;align=center;verticalAlign=middle;points=[];fillColor=none;strokeColor=none;rounded=0;dashed=1;fontSize=16;fontColor=#FF0000;" parent="1" vertex="1">
          <mxGeometry x="1300" y="236" width="80" height="30" as="geometry" />
        </mxCell>
        <mxCell id="VPFrxmpOL_sy5obyjlSU-40" value="" style="endArrow=none;html=1;rounded=0;fontSize=16;fontColor=#000000;strokeColor=#FF0000;entryX=1;entryY=0.75;entryDx=0;entryDy=0;exitX=0;exitY=0.75;exitDx=0;exitDy=0;" parent="1" source="VPFrxmpOL_sy5obyjlSU-35" edge="1">
          <mxGeometry width="50" height="50" relative="1" as="geometry">
            <mxPoint x="1406" y="290" as="sourcePoint" />
            <mxPoint x="1276" y="292.5" as="targetPoint" />
            <Array as="points" />
          </mxGeometry>
        </mxCell>
        <mxCell id="s74JvbKv9A3GNjfIYB-O-11" value="" style="rounded=1;whiteSpace=wrap;html=1;strokeColor=#FF0000;fillColor=none;dashed=1;strokeWidth=3;" vertex="1" parent="1">
          <mxGeometry x="150" y="160" width="720" height="460" as="geometry" />
        </mxCell>
        <mxCell id="s74JvbKv9A3GNjfIYB-O-12" value="&lt;font style=&quot;font-size: 16px;&quot;&gt;Data&lt;/font&gt;" style="text;html=1;resizable=0;autosize=1;align=center;verticalAlign=middle;points=[];fillColor=none;strokeColor=none;rounded=0;dashed=1;" vertex="1" parent="1">
          <mxGeometry x="1310" y="296" width="60" height="30" as="geometry" />
        </mxCell>
        <mxCell id="s74JvbKv9A3GNjfIYB-O-13" value="Firewall" style="text;html=1;resizable=0;autosize=1;align=center;verticalAlign=middle;points=[];fillColor=none;strokeColor=none;rounded=0;dashed=1;fontSize=16;" vertex="1" parent="1">
          <mxGeometry x="1195" y="335" width="80" height="30" as="geometry" />
        </mxCell>
      </root>
    </mxGraphModel>
  </diagram>
</mxfile>
